<svg width="" height="" viewBox="0 0 98 12" fill="none" xmlns="http://www.w3.org/2000/svg">
<path d="M4.78516 6.63184H2.22852L2.21484 5.22363H4.36133C4.73958 5.22363 5.04948 5.17578 5.29102 5.08008C5.53255 4.97982 5.71257 4.83626 5.83105 4.64941C5.9541 4.45801 6.01562 4.22559 6.01562 3.95215C6.01562 3.64225 5.95638 3.3916 5.83789 3.2002C5.72396 3.00879 5.54395 2.86979 5.29785 2.7832C5.05632 2.69661 4.74414 2.65332 4.36133 2.65332H2.93945V11H0.888672V1.04688H4.36133C4.9401 1.04688 5.45736 1.10156 5.91309 1.21094C6.37337 1.32031 6.76302 1.48665 7.08203 1.70996C7.40104 1.93327 7.64486 2.21582 7.81348 2.55762C7.9821 2.89486 8.06641 3.2959 8.06641 3.76074C8.06641 4.1709 7.97298 4.54915 7.78613 4.89551C7.60384 5.24186 7.31445 5.52441 6.91797 5.74316C6.52604 5.96191 6.01335 6.08268 5.37988 6.10547L4.78516 6.63184ZM4.69629 11H1.66797L2.46777 9.40039H4.69629C5.05632 9.40039 5.35026 9.34342 5.57812 9.22949C5.80599 9.111 5.97461 8.9515 6.08398 8.75098C6.19336 8.55046 6.24805 8.32031 6.24805 8.06055C6.24805 7.76888 6.19792 7.51595 6.09766 7.30176C6.00195 7.08757 5.84701 6.9235 5.63281 6.80957C5.41862 6.69108 5.13607 6.63184 4.78516 6.63184H2.80957L2.82324 5.22363H5.28418L5.75586 5.77734C6.36198 5.76823 6.84961 5.87533 7.21875 6.09863C7.59245 6.31738 7.86361 6.60221 8.03223 6.95312C8.2054 7.30404 8.29199 7.68001 8.29199 8.08105C8.29199 8.71908 8.15299 9.25684 7.875 9.69434C7.59701 10.1273 7.18913 10.4531 6.65137 10.6719C6.11816 10.8906 5.46647 11 4.69629 11ZM13.8301 1.04688H17.542C18.3031 1.04688 18.957 1.16081 19.5039 1.38867C20.0553 1.61654 20.4792 1.95378 20.7754 2.40039C21.0716 2.84701 21.2197 3.39616 21.2197 4.04785C21.2197 4.58105 21.1286 5.03906 20.9463 5.42188C20.7686 5.80013 20.5156 6.11686 20.1875 6.37207C19.8639 6.62272 19.4834 6.82324 19.0459 6.97363L18.3965 7.31543H15.1699L15.1562 5.71582H17.5557C17.9157 5.71582 18.2142 5.65202 18.4512 5.52441C18.6882 5.39681 18.8659 5.21908 18.9844 4.99121C19.1074 4.76335 19.1689 4.49902 19.1689 4.19824C19.1689 3.87923 19.1097 3.60352 18.9912 3.37109C18.8727 3.13867 18.6927 2.96094 18.4512 2.83789C18.2096 2.71484 17.9066 2.65332 17.542 2.65332H15.8809V11H13.8301V1.04688ZM19.3945 11L17.125 6.56348L19.292 6.5498L21.5889 10.9043V11H19.3945ZM30.8457 2.74902L28.1387 11H25.958L29.6562 1.04688H31.0439L30.8457 2.74902ZM33.0947 11L30.3809 2.74902L30.1621 1.04688H31.5635L35.2822 11H33.0947ZM32.9717 7.29492V8.90137H27.7148V7.29492H32.9717ZM48.3057 1.04688V11H46.2549L42.2559 4.32812V11H40.2051V1.04688H42.2559L46.2617 7.72559V1.04688H48.3057ZM57.1455 11H54.9785L54.9922 9.40039H57.1455C57.6833 9.40039 58.1367 9.27962 58.5059 9.03809C58.875 8.79199 59.153 8.43424 59.3398 7.96484C59.5312 7.49544 59.627 6.92806 59.627 6.2627V5.77734C59.627 5.26693 59.5723 4.81803 59.4629 4.43066C59.3581 4.04329 59.2008 3.71745 58.9912 3.45312C58.7816 3.1888 58.5241 2.99056 58.2188 2.8584C57.9134 2.72168 57.5625 2.65332 57.166 2.65332H54.9375V1.04688H57.166C57.8314 1.04688 58.4398 1.16081 58.9912 1.38867C59.5472 1.61198 60.028 1.93327 60.4336 2.35254C60.8392 2.77181 61.1514 3.27311 61.3701 3.85645C61.5934 4.43522 61.7051 5.08008 61.7051 5.79102V6.2627C61.7051 6.96908 61.5934 7.61393 61.3701 8.19727C61.1514 8.7806 60.8392 9.2819 60.4336 9.70117C60.0326 10.1159 59.5518 10.4372 58.9912 10.665C58.4352 10.8883 57.82 11 57.1455 11ZM56.1406 1.04688V11H54.0898V1.04688H56.1406ZM69.376 1.04688V11H67.332V1.04688H69.376ZM83.3975 1.04688V11H81.3467L77.3477 4.32812V11H75.2969V1.04688H77.3477L81.3535 7.72559V1.04688H83.3975ZM97.0703 5.79785V9.74219C96.9154 9.92904 96.6761 10.1318 96.3525 10.3506C96.029 10.5648 95.612 10.7493 95.1016 10.9043C94.5911 11.0592 93.9736 11.1367 93.249 11.1367C92.6064 11.1367 92.0208 11.0319 91.4922 10.8223C90.9635 10.6081 90.5078 10.2959 90.125 9.88574C89.7467 9.47559 89.4551 8.97428 89.25 8.38184C89.0449 7.78483 88.9424 7.10352 88.9424 6.33789V5.71582C88.9424 4.9502 89.0404 4.26888 89.2363 3.67188C89.4368 3.07487 89.7217 2.57129 90.0908 2.16113C90.46 1.75098 90.8997 1.4388 91.4102 1.22461C91.9206 1.01042 92.488 0.90332 93.1123 0.90332C93.9782 0.90332 94.6891 1.0446 95.2451 1.32715C95.8011 1.60514 96.2249 1.99251 96.5166 2.48926C96.8128 2.98145 96.9951 3.54655 97.0635 4.18457H95.0742C95.0241 3.84733 94.9284 3.55339 94.7871 3.30273C94.6458 3.05208 94.443 2.85612 94.1787 2.71484C93.9189 2.57357 93.5817 2.50293 93.167 2.50293C92.8252 2.50293 92.5199 2.57357 92.251 2.71484C91.9867 2.85156 91.7633 3.05436 91.5811 3.32324C91.3988 3.59212 91.2598 3.9248 91.1641 4.32129C91.0684 4.71777 91.0205 5.17806 91.0205 5.70215V6.33789C91.0205 6.85742 91.0706 7.31771 91.1709 7.71875C91.2712 8.11523 91.4193 8.4502 91.6152 8.72363C91.8158 8.99251 92.0618 9.19531 92.3535 9.33203C92.6452 9.46875 92.9847 9.53711 93.3721 9.53711C93.6956 9.53711 93.9645 9.50977 94.1787 9.45508C94.3975 9.40039 94.5729 9.33431 94.7051 9.25684C94.8418 9.1748 94.9466 9.09733 95.0195 9.02441V7.26074H93.1465V5.79785H97.0703Z" fill="#3C46FF"/>
</svg>
