<svg width="70" height="65" viewBox="0 0 70 65" fill="none" xmlns="http://www.w3.org/2000/svg">
<path d="M69.022 31.481C69.022 40.3324 65.5567 48.8213 59.3884 55.0801C53.2203 61.339 44.8544 64.8553 36.1313 64.8553C27.4082 64.8553 19.0423 61.339 12.8741 55.0801C6.70592 48.8213 3.24066 40.3324 3.24066 31.481H36.1313H69.022Z" fill="url(#paint0_linear_0_1)"/>
<path d="M36.1312 26.39C42.3814 26.39 47.4482 21.2487 47.4482 14.9066C47.4482 8.56451 42.3814 3.42322 36.1312 3.42322C29.8811 3.42322 24.8143 8.56451 24.8143 14.9066C24.8143 21.2487 29.8811 26.39 36.1312 26.39Z" fill="url(#paint1_linear_0_1)"/>
<path d="M65.7812 28.3744C65.7812 37.2258 62.316 45.7146 56.1478 51.9736C49.9796 58.2325 41.6138 61.7486 32.8907 61.7486C24.1674 61.7486 15.8016 58.2325 9.63344 51.9736C3.46525 45.7146 1.31716e-06 37.2258 0 28.3744H32.8907H65.7812Z" fill="black"/>
<path d="M32.8906 23.2834C39.1408 23.2834 44.2076 18.1422 44.2076 11.8C44.2076 5.45794 39.1408 0.31665 32.8906 0.31665C26.6404 0.31665 21.5736 5.45794 21.5736 11.8C21.5736 18.1422 26.6404 23.2834 32.8906 23.2834Z" fill="black"/>
<defs>
<linearGradient id="paint0_linear_0_1" x1="-2.26131" y1="48.1681" x2="61.7535" y2="47.9381" gradientUnits="userSpaceOnUse">
<stop offset="0.197917" stop-color="#B16CEA"/>
<stop offset="0.557292" stop-color="#FF5E69"/>
<stop offset="0.828125" stop-color="#FF8A56"/>
<stop offset="1" stop-color="#FFA84B"/>
</linearGradient>
<linearGradient id="paint1_linear_0_1" x1="17.0108" y1="12.3171" x2="43.8375" y2="10.2709" gradientUnits="userSpaceOnUse">
<stop offset="0.197917" stop-color="#B16CEA"/>
<stop offset="0.557292" stop-color="#FF5E69"/>
<stop offset="0.828125" stop-color="#FF8A56"/>
<stop offset="1" stop-color="#FFA84B"/>
</linearGradient>
</defs>
</svg>
