<svg width="167" height="12" viewBox="0 0 167 12" fill="none" xmlns="http://www.w3.org/2000/svg">
<path d="M4.76465 7.45215H2.22852V5.85254H4.76465C5.15658 5.85254 5.47559 5.78874 5.72168 5.66113C5.96777 5.52897 6.14779 5.34668 6.26172 5.11426C6.37565 4.88184 6.43262 4.61979 6.43262 4.32812C6.43262 4.0319 6.37565 3.75618 6.26172 3.50098C6.14779 3.24577 5.96777 3.04069 5.72168 2.88574C5.47559 2.73079 5.15658 2.65332 4.76465 2.65332H2.93945V11H0.888672V1.04688H4.76465C5.54395 1.04688 6.21159 1.18815 6.76758 1.4707C7.32812 1.7487 7.75651 2.13379 8.05273 2.62598C8.34896 3.11816 8.49707 3.68099 8.49707 4.31445C8.49707 4.95703 8.34896 5.51302 8.05273 5.98242C7.75651 6.45182 7.32812 6.81413 6.76758 7.06934C6.21159 7.32454 5.54395 7.45215 4.76465 7.45215ZM13.9121 1.04688H17.624C18.3851 1.04688 19.0391 1.16081 19.5859 1.38867C20.1374 1.61654 20.5612 1.95378 20.8574 2.40039C21.1536 2.84701 21.3018 3.39616 21.3018 4.04785C21.3018 4.58105 21.2106 5.03906 21.0283 5.42188C20.8506 5.80013 20.5977 6.11686 20.2695 6.37207C19.946 6.62272 19.5654 6.82324 19.1279 6.97363L18.4785 7.31543H15.252L15.2383 5.71582H17.6377C17.9977 5.71582 18.2962 5.65202 18.5332 5.52441C18.7702 5.39681 18.9479 5.21908 19.0664 4.99121C19.1895 4.76335 19.251 4.49902 19.251 4.19824C19.251 3.87923 19.1917 3.60352 19.0732 3.37109C18.9548 3.13867 18.7747 2.96094 18.5332 2.83789C18.2917 2.71484 17.9886 2.65332 17.624 2.65332H15.9629V11H13.9121V1.04688ZM19.4766 11L17.207 6.56348L19.374 6.5498L21.6709 10.9043V11H19.4766ZM35.0566 5.79102V6.2627C35.0566 7.01921 34.9541 7.69824 34.749 8.2998C34.5439 8.90137 34.2546 9.41406 33.8809 9.83789C33.5072 10.2572 33.0605 10.5785 32.541 10.8018C32.026 11.0251 31.4541 11.1367 30.8252 11.1367C30.2008 11.1367 29.6289 11.0251 29.1094 10.8018C28.5944 10.5785 28.1478 10.2572 27.7695 9.83789C27.3913 9.41406 27.0973 8.90137 26.8877 8.2998C26.6826 7.69824 26.5801 7.01921 26.5801 6.2627V5.79102C26.5801 5.02995 26.6826 4.35091 26.8877 3.75391C27.0928 3.15234 27.3822 2.63965 27.7559 2.21582C28.1341 1.79199 28.5807 1.46842 29.0957 1.24512C29.6152 1.02181 30.1872 0.910156 30.8115 0.910156C31.4404 0.910156 32.0124 1.02181 32.5273 1.24512C33.0469 1.46842 33.4935 1.79199 33.8672 2.21582C34.2454 2.63965 34.5371 3.15234 34.7422 3.75391C34.9518 4.35091 35.0566 5.02995 35.0566 5.79102ZM32.9854 6.2627V5.77734C32.9854 5.2487 32.9375 4.78385 32.8418 4.38281C32.7461 3.98177 32.6048 3.64453 32.418 3.37109C32.2311 3.09766 32.0033 2.89258 31.7344 2.75586C31.4655 2.61458 31.1579 2.54395 30.8115 2.54395C30.4652 2.54395 30.1576 2.61458 29.8887 2.75586C29.6243 2.89258 29.3988 3.09766 29.2119 3.37109C29.0296 3.64453 28.8906 3.98177 28.7949 4.38281C28.6992 4.78385 28.6514 5.2487 28.6514 5.77734V6.2627C28.6514 6.78678 28.6992 7.25163 28.7949 7.65723C28.8906 8.05827 29.0319 8.39779 29.2188 8.67578C29.4056 8.94922 29.6335 9.15658 29.9023 9.29785C30.1712 9.43913 30.4788 9.50977 30.8252 9.50977C31.1715 9.50977 31.4792 9.43913 31.748 9.29785C32.0169 9.15658 32.2425 8.94922 32.4248 8.67578C32.6071 8.39779 32.7461 8.05827 32.8418 7.65723C32.9375 7.25163 32.9854 6.78678 32.9854 6.2627ZM43.5889 11H41.4219L41.4355 9.40039H43.5889C44.1266 9.40039 44.5801 9.27962 44.9492 9.03809C45.3184 8.79199 45.5964 8.43424 45.7832 7.96484C45.9746 7.49544 46.0703 6.92806 46.0703 6.2627V5.77734C46.0703 5.26693 46.0156 4.81803 45.9062 4.43066C45.8014 4.04329 45.6442 3.71745 45.4346 3.45312C45.2249 3.1888 44.9674 2.99056 44.6621 2.8584C44.3568 2.72168 44.0059 2.65332 43.6094 2.65332H41.3809V1.04688H43.6094C44.2747 1.04688 44.8831 1.16081 45.4346 1.38867C45.9906 1.61198 46.4714 1.93327 46.877 2.35254C47.2826 2.77181 47.5947 3.27311 47.8135 3.85645C48.0368 4.43522 48.1484 5.08008 48.1484 5.79102V6.2627C48.1484 6.96908 48.0368 7.61393 47.8135 8.19727C47.5947 8.7806 47.2826 9.2819 46.877 9.70117C46.4759 10.1159 45.9951 10.4372 45.4346 10.665C44.8786 10.8883 44.2633 11 43.5889 11ZM42.584 1.04688V11H40.5332V1.04688H42.584ZM59.1348 1.04688H61.1787V7.62305C61.1787 8.38867 61.0146 9.03353 60.6865 9.55762C60.363 10.0817 59.9141 10.4759 59.3398 10.7402C58.7702 11.0046 58.1139 11.1367 57.3711 11.1367C56.6283 11.1367 55.9674 11.0046 55.3887 10.7402C54.8145 10.4759 54.3633 10.0817 54.0352 9.55762C53.7116 9.03353 53.5498 8.38867 53.5498 7.62305V1.04688H55.6006V7.62305C55.6006 8.06966 55.6712 8.43424 55.8125 8.7168C55.9538 8.99935 56.1566 9.20671 56.4209 9.33887C56.6898 9.47103 57.0065 9.53711 57.3711 9.53711C57.7448 9.53711 58.0615 9.47103 58.3213 9.33887C58.5856 9.20671 58.7861 8.99935 58.9229 8.7168C59.0641 8.43424 59.1348 8.06966 59.1348 7.62305V1.04688ZM72.6367 7.69824H74.6807C74.6396 8.36816 74.4551 8.96289 74.127 9.48242C73.8034 10.002 73.3499 10.4076 72.7666 10.6992C72.1878 10.9909 71.4906 11.1367 70.6748 11.1367C70.0368 11.1367 69.4648 11.0273 68.959 10.8086C68.4531 10.5853 68.0202 10.2663 67.6602 9.85156C67.3047 9.43685 67.0335 8.93555 66.8467 8.34766C66.6598 7.75977 66.5664 7.10124 66.5664 6.37207V5.68164C66.5664 4.95247 66.6621 4.29395 66.8535 3.70605C67.0495 3.11361 67.3275 2.61003 67.6875 2.19531C68.0521 1.7806 68.4873 1.46159 68.9932 1.23828C69.499 1.01497 70.0641 0.90332 70.6885 0.90332C71.5179 0.90332 72.2174 1.05371 72.7871 1.35449C73.3613 1.65527 73.8057 2.06999 74.1201 2.59863C74.4391 3.12728 74.6305 3.72884 74.6943 4.40332H72.6436C72.6208 4.00228 72.541 3.66276 72.4043 3.38477C72.2676 3.10221 72.0602 2.8903 71.7822 2.74902C71.5088 2.60319 71.1442 2.53027 70.6885 2.53027C70.3467 2.53027 70.0482 2.59408 69.793 2.72168C69.5378 2.84928 69.3236 3.04297 69.1504 3.30273C68.9772 3.5625 68.8473 3.89062 68.7607 4.28711C68.6787 4.67904 68.6377 5.13932 68.6377 5.66797V6.37207C68.6377 6.88704 68.6764 7.34049 68.7539 7.73242C68.8314 8.11979 68.9499 8.44792 69.1094 8.7168C69.2734 8.98112 69.4831 9.18164 69.7383 9.31836C69.998 9.45052 70.3102 9.5166 70.6748 9.5166C71.1032 9.5166 71.4564 9.44824 71.7344 9.31152C72.0124 9.1748 72.2243 8.97201 72.3701 8.70312C72.5205 8.43424 72.6094 8.09928 72.6367 7.69824ZM84.2725 1.04688V11H82.2285V1.04688H84.2725ZM87.335 1.04688V2.65332H79.2139V1.04688H87.335ZM102.677 11H100.51L100.523 9.40039H102.677C103.215 9.40039 103.668 9.27962 104.037 9.03809C104.406 8.79199 104.684 8.43424 104.871 7.96484C105.062 7.49544 105.158 6.92806 105.158 6.2627V5.77734C105.158 5.26693 105.104 4.81803 104.994 4.43066C104.889 4.04329 104.732 3.71745 104.522 3.45312C104.313 3.1888 104.055 2.99056 103.75 2.8584C103.445 2.72168 103.094 2.65332 102.697 2.65332H100.469V1.04688H102.697C103.363 1.04688 103.971 1.16081 104.522 1.38867C105.078 1.61198 105.559 1.93327 105.965 2.35254C106.37 2.77181 106.683 3.27311 106.901 3.85645C107.125 4.43522 107.236 5.08008 107.236 5.79102V6.2627C107.236 6.96908 107.125 7.61393 106.901 8.19727C106.683 8.7806 106.37 9.2819 105.965 9.70117C105.564 10.1159 105.083 10.4372 104.522 10.665C103.966 10.8883 103.351 11 102.677 11ZM101.672 1.04688V11H99.6211V1.04688H101.672ZM119.405 9.40039V11H114.107V9.40039H119.405ZM114.777 1.04688V11H112.727V1.04688H114.777ZM118.715 5.10059V6.65918H114.107V5.10059H118.715ZM119.398 1.04688V2.65332H114.107V1.04688H119.398ZM129.783 8.39551C129.783 8.21777 129.756 8.05827 129.701 7.91699C129.651 7.77116 129.555 7.639 129.414 7.52051C129.273 7.39746 129.075 7.27669 128.819 7.1582C128.564 7.03971 128.234 6.91667 127.828 6.78906C127.377 6.64323 126.949 6.47917 126.543 6.29688C126.142 6.11458 125.786 5.90267 125.477 5.66113C125.171 5.41504 124.93 5.13021 124.752 4.80664C124.579 4.48307 124.492 4.1071 124.492 3.67871C124.492 3.264 124.583 2.88802 124.766 2.55078C124.948 2.20898 125.203 1.91732 125.531 1.67578C125.859 1.42969 126.247 1.24056 126.693 1.1084C127.145 0.976237 127.639 0.910156 128.177 0.910156C128.91 0.910156 129.551 1.04232 130.098 1.30664C130.645 1.57096 131.068 1.93327 131.369 2.39355C131.674 2.85384 131.827 3.38021 131.827 3.97266H129.79C129.79 3.68099 129.729 3.42578 129.605 3.20703C129.487 2.98372 129.305 2.80827 129.059 2.68066C128.817 2.55306 128.512 2.48926 128.143 2.48926C127.787 2.48926 127.491 2.54395 127.254 2.65332C127.017 2.75814 126.839 2.90169 126.721 3.08398C126.602 3.26172 126.543 3.46224 126.543 3.68555C126.543 3.85417 126.584 4.00684 126.666 4.14355C126.753 4.28027 126.88 4.40788 127.049 4.52637C127.217 4.64486 127.425 4.75651 127.671 4.86133C127.917 4.96615 128.202 5.06868 128.525 5.16895C129.068 5.33301 129.544 5.51758 129.954 5.72266C130.369 5.92773 130.715 6.15788 130.993 6.41309C131.271 6.66829 131.481 6.95768 131.622 7.28125C131.763 7.60482 131.834 7.97168 131.834 8.38184C131.834 8.81478 131.75 9.20215 131.581 9.54395C131.412 9.88574 131.169 10.1751 130.85 10.4121C130.531 10.6491 130.15 10.8291 129.708 10.9521C129.266 11.0752 128.771 11.1367 128.225 11.1367C127.732 11.1367 127.247 11.0729 126.769 10.9453C126.29 10.8132 125.855 10.6149 125.463 10.3506C125.076 10.0863 124.766 9.74902 124.533 9.33887C124.301 8.92871 124.185 8.44336 124.185 7.88281H126.242C126.242 8.19271 126.29 8.45475 126.386 8.66895C126.481 8.88314 126.616 9.05632 126.789 9.18848C126.967 9.32064 127.176 9.41634 127.418 9.47559C127.664 9.53483 127.933 9.56445 128.225 9.56445C128.58 9.56445 128.872 9.51432 129.1 9.41406C129.332 9.3138 129.503 9.1748 129.612 8.99707C129.726 8.81934 129.783 8.61882 129.783 8.39551ZM139.409 1.04688V11H137.365V1.04688H139.409ZM153.219 5.79785V9.74219C153.064 9.92904 152.825 10.1318 152.501 10.3506C152.177 10.5648 151.76 10.7493 151.25 10.9043C150.74 11.0592 150.122 11.1367 149.397 11.1367C148.755 11.1367 148.169 11.0319 147.641 10.8223C147.112 10.6081 146.656 10.2959 146.273 9.88574C145.895 9.47559 145.604 8.97428 145.398 8.38184C145.193 7.78483 145.091 7.10352 145.091 6.33789V5.71582C145.091 4.9502 145.189 4.26888 145.385 3.67188C145.585 3.07487 145.87 2.57129 146.239 2.16113C146.608 1.75098 147.048 1.4388 147.559 1.22461C148.069 1.01042 148.636 0.90332 149.261 0.90332C150.127 0.90332 150.838 1.0446 151.394 1.32715C151.95 1.60514 152.373 1.99251 152.665 2.48926C152.961 2.98145 153.144 3.54655 153.212 4.18457H151.223C151.173 3.84733 151.077 3.55339 150.936 3.30273C150.794 3.05208 150.591 2.85612 150.327 2.71484C150.067 2.57357 149.73 2.50293 149.315 2.50293C148.974 2.50293 148.668 2.57357 148.399 2.71484C148.135 2.85156 147.912 3.05436 147.729 3.32324C147.547 3.59212 147.408 3.9248 147.312 4.32129C147.217 4.71777 147.169 5.17806 147.169 5.70215V6.33789C147.169 6.85742 147.219 7.31771 147.319 7.71875C147.42 8.11523 147.568 8.4502 147.764 8.72363C147.964 8.99251 148.21 9.19531 148.502 9.33203C148.794 9.46875 149.133 9.53711 149.521 9.53711C149.844 9.53711 150.113 9.50977 150.327 9.45508C150.546 9.40039 150.721 9.33431 150.854 9.25684C150.99 9.1748 151.095 9.09733 151.168 9.02441V7.26074H149.295V5.79785H153.219ZM166.974 1.04688V11H164.923L160.924 4.32812V11H158.873V1.04688H160.924L164.93 7.72559V1.04688H166.974Z" fill="#3C46FF"/>
</svg>
