<svg width="129" height="17" viewBox="0 0 129 17" fill="none" xmlns="http://www.w3.org/2000/svg">
<path d="M9.56152 11.9072C9.56152 11.6279 9.51855 11.3773 9.43262 11.1553C9.35384 10.9261 9.20345 10.7184 8.98145 10.5322C8.75944 10.3389 8.44792 10.1491 8.04688 9.96289C7.64583 9.77669 7.12663 9.58333 6.48926 9.38281C5.78027 9.15365 5.1071 8.89583 4.46973 8.60938C3.83952 8.32292 3.28092 7.98991 2.79395 7.61035C2.31413 7.22363 1.93457 6.77604 1.65527 6.26758C1.38314 5.75911 1.24707 5.16829 1.24707 4.49512C1.24707 3.84342 1.3903 3.2526 1.67676 2.72266C1.96322 2.18555 2.36426 1.72721 2.87988 1.34766C3.39551 0.960938 4.00423 0.663737 4.70605 0.456055C5.41504 0.248372 6.19206 0.144531 7.03711 0.144531C8.1901 0.144531 9.19629 0.352214 10.0557 0.767578C10.915 1.18294 11.5811 1.75228 12.0537 2.47559C12.5335 3.19889 12.7734 4.02604 12.7734 4.95703H9.57227C9.57227 4.4987 9.47559 4.09766 9.28223 3.75391C9.09603 3.40299 8.80957 3.12728 8.42285 2.92676C8.04329 2.72624 7.56348 2.62598 6.9834 2.62598C6.4248 2.62598 5.95931 2.71191 5.58691 2.88379C5.21452 3.0485 4.93522 3.27409 4.74902 3.56055C4.56283 3.83984 4.46973 4.15495 4.46973 4.50586C4.46973 4.77083 4.53418 5.01074 4.66309 5.22559C4.79915 5.44043 4.99967 5.64095 5.26465 5.82715C5.52962 6.01335 5.85547 6.1888 6.24219 6.35352C6.62891 6.51823 7.0765 6.67936 7.58496 6.83691C8.43717 7.09473 9.18555 7.38477 9.83008 7.70703C10.4818 8.0293 11.026 8.39095 11.4629 8.79199C11.8997 9.19303 12.2292 9.64779 12.4512 10.1562C12.6732 10.6647 12.7842 11.2412 12.7842 11.8857C12.7842 12.5661 12.6517 13.1748 12.3867 13.7119C12.1217 14.249 11.7386 14.7038 11.2373 15.0762C10.736 15.4486 10.138 15.7314 9.44336 15.9248C8.7487 16.1182 7.97168 16.2148 7.1123 16.2148C6.33887 16.2148 5.57617 16.1146 4.82422 15.9141C4.07227 15.7064 3.38835 15.3949 2.77246 14.9795C2.16374 14.5641 1.67676 14.0342 1.31152 13.3896C0.946289 12.7451 0.763672 11.9824 0.763672 11.1016H3.99707C3.99707 11.5885 4.07227 12.0003 4.22266 12.3369C4.37305 12.6735 4.58431 12.9456 4.85645 13.1533C5.13574 13.361 5.46517 13.5114 5.84473 13.6045C6.23145 13.6976 6.65397 13.7441 7.1123 13.7441C7.6709 13.7441 8.12923 13.6654 8.4873 13.5078C8.85254 13.3503 9.12109 13.1318 9.29297 12.8525C9.47201 12.5732 9.56152 12.2581 9.56152 11.9072ZM29.4707 13.4863V16H21.1455V13.4863H29.4707ZM22.1982 0.359375V16H18.9756V0.359375H22.1982ZM28.3857 6.72949V9.17871H21.1455V6.72949H28.3857ZM29.46 0.359375V2.88379H21.1455V0.359375H29.46ZM35.3506 0.359375H41.1836C42.3796 0.359375 43.4072 0.538411 44.2666 0.896484C45.1331 1.25456 45.7992 1.78451 46.2646 2.48633C46.7301 3.18815 46.9629 4.05111 46.9629 5.0752C46.9629 5.91309 46.8197 6.63281 46.5332 7.23438C46.2539 7.82878 45.8564 8.3265 45.3408 8.72754C44.8324 9.12142 44.2344 9.43652 43.5469 9.67285L42.5264 10.21H37.4561L37.4346 7.69629H41.2051C41.7708 7.69629 42.2399 7.59603 42.6123 7.39551C42.9847 7.19499 43.264 6.91569 43.4502 6.55762C43.6436 6.19954 43.7402 5.78418 43.7402 5.31152C43.7402 4.81022 43.6471 4.37695 43.4609 4.01172C43.2747 3.64648 42.9919 3.36719 42.6123 3.17383C42.2327 2.98047 41.7565 2.88379 41.1836 2.88379H38.5732V16H35.3506V0.359375ZM44.0947 16L40.5283 9.02832L43.9336 9.00684L47.543 15.8496V16H44.0947ZM58.8691 12.7344L62.5537 0.359375H66.1416L60.6953 16H58.332L58.8691 12.7344ZM55.4746 0.359375L59.1484 12.7344L59.707 16H57.3223L51.9082 0.359375H55.4746ZM75.0293 0.359375V16H71.8174V0.359375H75.0293ZM91.1143 10.8115H94.3262C94.2617 11.8643 93.9717 12.7988 93.4561 13.6152C92.9476 14.4316 92.235 15.069 91.3184 15.5273C90.4089 15.9857 89.3132 16.2148 88.0312 16.2148C87.0286 16.2148 86.1299 16.043 85.335 15.6992C84.54 15.3483 83.8597 14.847 83.2939 14.1953C82.7354 13.5436 82.3092 12.7559 82.0156 11.832C81.722 10.9082 81.5752 9.87337 81.5752 8.72754V7.64258C81.5752 6.49674 81.7256 5.46191 82.0264 4.53809C82.3343 3.6071 82.7712 2.81576 83.3369 2.16406C83.9098 1.51237 84.5938 1.01107 85.3887 0.660156C86.1836 0.309245 87.0716 0.133789 88.0527 0.133789C89.3561 0.133789 90.4554 0.370117 91.3506 0.842773C92.2529 1.31543 92.9512 1.96712 93.4453 2.79785C93.9466 3.62858 94.2474 4.57389 94.3477 5.63379H91.125C91.0892 5.00358 90.9639 4.47005 90.749 4.0332C90.5342 3.58919 90.2083 3.25618 89.7715 3.03418C89.3418 2.80501 88.7689 2.69043 88.0527 2.69043C87.5156 2.69043 87.0465 2.79069 86.6455 2.99121C86.2445 3.19173 85.9079 3.49609 85.6357 3.9043C85.3636 4.3125 85.1595 4.82812 85.0234 5.45117C84.8945 6.06706 84.8301 6.79036 84.8301 7.62109V8.72754C84.8301 9.53678 84.891 10.2493 85.0127 10.8652C85.1344 11.474 85.3206 11.9896 85.5713 12.4121C85.8291 12.8275 86.1585 13.1426 86.5596 13.3574C86.9678 13.5651 87.4583 13.6689 88.0312 13.6689C88.7044 13.6689 89.2594 13.5615 89.6963 13.3467C90.1331 13.1318 90.4661 12.8132 90.6953 12.3906C90.9316 11.9681 91.0713 11.4417 91.1143 10.8115ZM110.938 13.4863V16H102.612V13.4863H110.938ZM103.665 0.359375V16H100.442V0.359375H103.665ZM109.853 6.72949V9.17871H102.612V6.72949H109.853ZM110.927 0.359375V2.88379H102.612V0.359375H110.927ZM124.96 11.9072C124.96 11.6279 124.917 11.3773 124.831 11.1553C124.752 10.9261 124.602 10.7184 124.38 10.5322C124.158 10.3389 123.846 10.1491 123.445 9.96289C123.044 9.77669 122.525 9.58333 121.888 9.38281C121.179 9.15365 120.506 8.89583 119.868 8.60938C119.238 8.32292 118.679 7.98991 118.192 7.61035C117.713 7.22363 117.333 6.77604 117.054 6.26758C116.782 5.75911 116.646 5.16829 116.646 4.49512C116.646 3.84342 116.789 3.2526 117.075 2.72266C117.362 2.18555 117.763 1.72721 118.278 1.34766C118.794 0.960938 119.403 0.663737 120.104 0.456055C120.813 0.248372 121.59 0.144531 122.436 0.144531C123.589 0.144531 124.595 0.352214 125.454 0.767578C126.313 1.18294 126.979 1.75228 127.452 2.47559C127.932 3.19889 128.172 4.02604 128.172 4.95703H124.971C124.971 4.4987 124.874 4.09766 124.681 3.75391C124.494 3.40299 124.208 3.12728 123.821 2.92676C123.442 2.72624 122.962 2.62598 122.382 2.62598C121.823 2.62598 121.358 2.71191 120.985 2.88379C120.613 3.0485 120.334 3.27409 120.147 3.56055C119.961 3.83984 119.868 4.15495 119.868 4.50586C119.868 4.77083 119.933 5.01074 120.062 5.22559C120.198 5.44043 120.398 5.64095 120.663 5.82715C120.928 6.01335 121.254 6.1888 121.641 6.35352C122.027 6.51823 122.475 6.67936 122.983 6.83691C123.836 7.09473 124.584 7.38477 125.229 7.70703C125.88 8.0293 126.424 8.39095 126.861 8.79199C127.298 9.19303 127.628 9.64779 127.85 10.1562C128.072 10.6647 128.183 11.2412 128.183 11.8857C128.183 12.5661 128.05 13.1748 127.785 13.7119C127.52 14.249 127.137 14.7038 126.636 15.0762C126.134 15.4486 125.536 15.7314 124.842 15.9248C124.147 16.1182 123.37 16.2148 122.511 16.2148C121.737 16.2148 120.975 16.1146 120.223 15.9141C119.471 15.7064 118.787 15.3949 118.171 14.9795C117.562 14.5641 117.075 14.0342 116.71 13.3896C116.345 12.7451 116.162 11.9824 116.162 11.1016H119.396C119.396 11.5885 119.471 12.0003 119.621 12.3369C119.771 12.6735 119.983 12.9456 120.255 13.1533C120.534 13.361 120.864 13.5114 121.243 13.6045C121.63 13.6976 122.052 13.7441 122.511 13.7441C123.069 13.7441 123.528 13.6654 123.886 13.5078C124.251 13.3503 124.52 13.1318 124.691 12.8525C124.87 12.5732 124.96 12.2581 124.96 11.9072Z" fill="#FF5E69"/>
</svg>
