<svg width="200" height="17" viewBox="0 0 200 17" fill="none" xmlns="http://www.w3.org/2000/svg">
<path d="M8.38965 0.359375V16H5.17773V0.359375H8.38965ZM13.2021 0.359375V2.88379H0.44043V0.359375H13.2021ZM29.5342 13.4863V16H21.209V13.4863H29.5342ZM22.2617 0.359375V16H19.0391V0.359375H22.2617ZM28.4492 6.72949V9.17871H21.209V6.72949H28.4492ZM29.5234 0.359375V2.88379H21.209V0.359375H29.5234ZM43.5566 11.9072C43.5566 11.6279 43.5137 11.3773 43.4277 11.1553C43.349 10.9261 43.1986 10.7184 42.9766 10.5322C42.7546 10.3389 42.443 10.1491 42.042 9.96289C41.641 9.77669 41.1217 9.58333 40.4844 9.38281C39.7754 9.15365 39.1022 8.89583 38.4648 8.60938C37.8346 8.32292 37.276 7.98991 36.7891 7.61035C36.3092 7.22363 35.9297 6.77604 35.6504 6.26758C35.3783 5.75911 35.2422 5.16829 35.2422 4.49512C35.2422 3.84342 35.3854 3.2526 35.6719 2.72266C35.9583 2.18555 36.3594 1.72721 36.875 1.34766C37.3906 0.960938 37.9993 0.663737 38.7012 0.456055C39.4102 0.248372 40.1872 0.144531 41.0322 0.144531C42.1852 0.144531 43.1914 0.352214 44.0508 0.767578C44.9102 1.18294 45.5762 1.75228 46.0488 2.47559C46.5286 3.19889 46.7686 4.02604 46.7686 4.95703H43.5674C43.5674 4.4987 43.4707 4.09766 43.2773 3.75391C43.0911 3.40299 42.8047 3.12728 42.418 2.92676C42.0384 2.72624 41.5586 2.62598 40.9785 2.62598C40.4199 2.62598 39.9544 2.71191 39.582 2.88379C39.2096 3.0485 38.9303 3.27409 38.7441 3.56055C38.5579 3.83984 38.4648 4.15495 38.4648 4.50586C38.4648 4.77083 38.5293 5.01074 38.6582 5.22559C38.7943 5.44043 38.9948 5.64095 39.2598 5.82715C39.5247 6.01335 39.8506 6.1888 40.2373 6.35352C40.624 6.51823 41.0716 6.67936 41.5801 6.83691C42.4323 7.09473 43.1807 7.38477 43.8252 7.70703C44.4769 8.0293 45.0212 8.39095 45.458 8.79199C45.8949 9.19303 46.2243 9.64779 46.4463 10.1562C46.6683 10.6647 46.7793 11.2412 46.7793 11.8857C46.7793 12.5661 46.6468 13.1748 46.3818 13.7119C46.1169 14.249 45.7337 14.7038 45.2324 15.0762C44.7311 15.4486 44.1331 15.7314 43.4385 15.9248C42.7438 16.1182 41.9668 16.2148 41.1074 16.2148C40.334 16.2148 39.5713 16.1146 38.8193 15.9141C38.0674 15.7064 37.3835 15.3949 36.7676 14.9795C36.1589 14.5641 35.6719 14.0342 35.3066 13.3896C34.9414 12.7451 34.7588 11.9824 34.7588 11.1016H37.9922C37.9922 11.5885 38.0674 12.0003 38.2178 12.3369C38.3682 12.6735 38.5794 12.9456 38.8516 13.1533C39.1309 13.361 39.4603 13.5114 39.8398 13.6045C40.2266 13.6976 40.6491 13.7441 41.1074 13.7441C41.666 13.7441 42.1243 13.6654 42.4824 13.5078C42.8477 13.3503 43.1162 13.1318 43.2881 12.8525C43.4671 12.5732 43.5566 12.2581 43.5566 11.9072ZM59.9639 0.359375V16H56.752V0.359375H59.9639ZM64.7764 0.359375V2.88379H52.0146V0.359375H64.7764ZM74.04 0.359375V16H70.8281V0.359375H74.04ZM82.5303 0.359375H85.2588L89.2764 11.8428L93.2939 0.359375H96.0225L90.3721 16H88.1807L82.5303 0.359375ZM81.0586 0.359375H83.7764L84.2705 11.5527V16H81.0586V0.359375ZM94.7764 0.359375H97.5049V16H94.2822V11.5527L94.7764 0.359375ZM117.178 7.81445V8.55566C117.178 9.74447 117.017 10.8115 116.694 11.7568C116.372 12.7021 115.917 13.5078 115.33 14.1738C114.743 14.8327 114.041 15.3376 113.225 15.6885C112.415 16.0394 111.517 16.2148 110.528 16.2148C109.547 16.2148 108.648 16.0394 107.832 15.6885C107.023 15.3376 106.321 14.8327 105.727 14.1738C105.132 13.5078 104.67 12.7021 104.341 11.7568C104.019 10.8115 103.857 9.74447 103.857 8.55566V7.81445C103.857 6.61849 104.019 5.55143 104.341 4.61328C104.663 3.66797 105.118 2.8623 105.705 2.19629C106.299 1.53027 107.001 1.02181 107.811 0.670898C108.627 0.319987 109.526 0.144531 110.507 0.144531C111.495 0.144531 112.394 0.319987 113.203 0.670898C114.02 1.02181 114.721 1.53027 115.309 2.19629C115.903 2.8623 116.361 3.66797 116.684 4.61328C117.013 5.55143 117.178 6.61849 117.178 7.81445ZM113.923 8.55566V7.79297C113.923 6.96224 113.848 6.23177 113.697 5.60156C113.547 4.97135 113.325 4.44141 113.031 4.01172C112.738 3.58203 112.38 3.25977 111.957 3.04492C111.535 2.82292 111.051 2.71191 110.507 2.71191C109.963 2.71191 109.479 2.82292 109.057 3.04492C108.641 3.25977 108.287 3.58203 107.993 4.01172C107.707 4.44141 107.488 4.97135 107.338 5.60156C107.188 6.23177 107.112 6.96224 107.112 7.79297V8.55566C107.112 9.37923 107.188 10.1097 107.338 10.7471C107.488 11.3773 107.71 11.9108 108.004 12.3477C108.298 12.7773 108.656 13.1032 109.078 13.3252C109.501 13.5472 109.984 13.6582 110.528 13.6582C111.073 13.6582 111.556 13.5472 111.979 13.3252C112.401 13.1032 112.756 12.7773 113.042 12.3477C113.328 11.9108 113.547 11.3773 113.697 10.7471C113.848 10.1097 113.923 9.37923 113.923 8.55566ZM136.228 0.359375V16H133.005L126.721 5.51562V16H123.498V0.359375H126.721L133.016 10.8545V0.359375H136.228ZM146.458 0.359375V16H143.246V0.359375H146.458ZM160.029 3.03418L155.775 16H152.349L158.16 0.359375H160.341L160.029 3.03418ZM163.563 16L159.299 3.03418L158.955 0.359375H161.157L167.001 16H163.563ZM163.37 10.1777V12.7021H155.109V10.1777H163.37ZM182.506 13.4863V16H174.632V13.4863H182.506ZM175.674 0.359375V16H172.451V0.359375H175.674ZM196.496 11.9072C196.496 11.6279 196.453 11.3773 196.367 11.1553C196.288 10.9261 196.138 10.7184 195.916 10.5322C195.694 10.3389 195.382 10.1491 194.981 9.96289C194.58 9.77669 194.061 9.58333 193.424 9.38281C192.715 9.15365 192.042 8.89583 191.404 8.60938C190.774 8.32292 190.215 7.98991 189.729 7.61035C189.249 7.22363 188.869 6.77604 188.59 6.26758C188.318 5.75911 188.182 5.16829 188.182 4.49512C188.182 3.84342 188.325 3.2526 188.611 2.72266C188.898 2.18555 189.299 1.72721 189.814 1.34766C190.33 0.960938 190.939 0.663737 191.641 0.456055C192.35 0.248372 193.127 0.144531 193.972 0.144531C195.125 0.144531 196.131 0.352214 196.99 0.767578C197.85 1.18294 198.516 1.75228 198.988 2.47559C199.468 3.19889 199.708 4.02604 199.708 4.95703H196.507C196.507 4.4987 196.41 4.09766 196.217 3.75391C196.031 3.40299 195.744 3.12728 195.357 2.92676C194.978 2.72624 194.498 2.62598 193.918 2.62598C193.359 2.62598 192.894 2.71191 192.521 2.88379C192.149 3.0485 191.87 3.27409 191.684 3.56055C191.497 3.83984 191.404 4.15495 191.404 4.50586C191.404 4.77083 191.469 5.01074 191.598 5.22559C191.734 5.44043 191.934 5.64095 192.199 5.82715C192.464 6.01335 192.79 6.1888 193.177 6.35352C193.563 6.51823 194.011 6.67936 194.52 6.83691C195.372 7.09473 196.12 7.38477 196.765 7.70703C197.416 8.0293 197.961 8.39095 198.397 8.79199C198.834 9.19303 199.164 9.64779 199.386 10.1562C199.608 10.6647 199.719 11.2412 199.719 11.8857C199.719 12.5661 199.586 13.1748 199.321 13.7119C199.056 14.249 198.673 14.7038 198.172 15.0762C197.671 15.4486 197.073 15.7314 196.378 15.9248C195.683 16.1182 194.906 16.2148 194.047 16.2148C193.273 16.2148 192.511 16.1146 191.759 15.9141C191.007 15.7064 190.323 15.3949 189.707 14.9795C189.098 14.5641 188.611 14.0342 188.246 13.3896C187.881 12.7451 187.698 11.9824 187.698 11.1016H190.932C190.932 11.5885 191.007 12.0003 191.157 12.3369C191.308 12.6735 191.519 12.9456 191.791 13.1533C192.07 13.361 192.4 13.5114 192.779 13.6045C193.166 13.6976 193.589 13.7441 194.047 13.7441C194.605 13.7441 195.064 13.6654 195.422 13.5078C195.787 13.3503 196.056 13.1318 196.228 12.8525C196.407 12.5732 196.496 12.2581 196.496 11.9072Z" fill="#4353FF"/>
</svg>
