<svg width="117" height="12" viewBox="0 0 117 12" fill="none" xmlns="http://www.w3.org/2000/svg">
<path d="M3.28809 9.4209L5.27051 1.04688H6.37793L6.63086 2.44141L4.51855 11H3.3291L3.28809 9.4209ZM2.26953 1.04688L3.91016 9.4209L3.77344 11H2.44727L0.239258 1.04688H2.26953ZM8.37402 9.38672L9.99414 1.04688H12.0244L9.82324 11H8.49707L8.37402 9.38672ZM7 1.04688L8.99609 9.45508L8.94141 11H7.75195L5.62598 2.43457L5.89941 1.04688H7ZM23.8174 9.40039V11H18.5195V9.40039H23.8174ZM19.1895 1.04688V11H17.1387V1.04688H19.1895ZM23.127 5.10059V6.65918H18.5195V5.10059H23.127ZM23.8105 1.04688V2.65332H18.5195V1.04688H23.8105ZM32.9102 6.63184H30.3535L30.3398 5.22363H32.4863C32.8646 5.22363 33.1745 5.17578 33.416 5.08008C33.6576 4.97982 33.8376 4.83626 33.9561 4.64941C34.0791 4.45801 34.1406 4.22559 34.1406 3.95215C34.1406 3.64225 34.0814 3.3916 33.9629 3.2002C33.849 3.00879 33.6689 2.86979 33.4229 2.7832C33.1813 2.69661 32.8691 2.65332 32.4863 2.65332H31.0645V11H29.0137V1.04688H32.4863C33.0651 1.04688 33.5824 1.10156 34.0381 1.21094C34.4984 1.32031 34.888 1.48665 35.207 1.70996C35.526 1.93327 35.7699 2.21582 35.9385 2.55762C36.1071 2.89486 36.1914 3.2959 36.1914 3.76074C36.1914 4.1709 36.098 4.54915 35.9111 4.89551C35.7288 5.24186 35.4395 5.52441 35.043 5.74316C34.651 5.96191 34.1383 6.08268 33.5049 6.10547L32.9102 6.63184ZM32.8213 11H29.793L30.5928 9.40039H32.8213C33.1813 9.40039 33.4753 9.34342 33.7031 9.22949C33.931 9.111 34.0996 8.9515 34.209 8.75098C34.3184 8.55046 34.373 8.32031 34.373 8.06055C34.373 7.76888 34.3229 7.51595 34.2227 7.30176C34.127 7.08757 33.972 6.9235 33.7578 6.80957C33.5436 6.69108 33.2611 6.63184 32.9102 6.63184H30.9346L30.9482 5.22363H33.4092L33.8809 5.77734C34.487 5.76823 34.9746 5.87533 35.3438 6.09863C35.7174 6.31738 35.9886 6.60221 36.1572 6.95312C36.3304 7.30404 36.417 7.68001 36.417 8.08105C36.417 8.71908 36.278 9.25684 36 9.69434C35.722 10.1273 35.3141 10.4531 34.7764 10.6719C34.2432 10.8906 33.5915 11 32.8213 11ZM52.4971 11H50.3301L50.3438 9.40039H52.4971C53.0348 9.40039 53.4883 9.27962 53.8574 9.03809C54.2266 8.79199 54.5046 8.43424 54.6914 7.96484C54.8828 7.49544 54.9785 6.92806 54.9785 6.2627V5.77734C54.9785 5.26693 54.9238 4.81803 54.8145 4.43066C54.7096 4.04329 54.5524 3.71745 54.3428 3.45312C54.1331 3.1888 53.8757 2.99056 53.5703 2.8584C53.265 2.72168 52.9141 2.65332 52.5176 2.65332H50.2891V1.04688H52.5176C53.1829 1.04688 53.7913 1.16081 54.3428 1.38867C54.8988 1.61198 55.3796 1.93327 55.7852 2.35254C56.1908 2.77181 56.5029 3.27311 56.7217 3.85645C56.945 4.43522 57.0566 5.08008 57.0566 5.79102V6.2627C57.0566 6.96908 56.945 7.61393 56.7217 8.19727C56.5029 8.7806 56.1908 9.2819 55.7852 9.70117C55.3841 10.1159 54.9033 10.4372 54.3428 10.665C53.7868 10.8883 53.1715 11 52.4971 11ZM51.4922 1.04688V11H49.4414V1.04688H51.4922ZM69.2256 9.40039V11H63.9277V9.40039H69.2256ZM64.5977 1.04688V11H62.5469V1.04688H64.5977ZM68.5352 5.10059V6.65918H63.9277V5.10059H68.5352ZM69.2188 1.04688V2.65332H63.9277V1.04688H69.2188ZM79.6035 8.39551C79.6035 8.21777 79.5762 8.05827 79.5215 7.91699C79.4714 7.77116 79.3757 7.639 79.2344 7.52051C79.0931 7.39746 78.8949 7.27669 78.6396 7.1582C78.3844 7.03971 78.054 6.91667 77.6484 6.78906C77.1973 6.64323 76.7689 6.47917 76.3633 6.29688C75.9622 6.11458 75.6068 5.90267 75.2969 5.66113C74.9915 5.41504 74.75 5.13021 74.5723 4.80664C74.3991 4.48307 74.3125 4.1071 74.3125 3.67871C74.3125 3.264 74.4036 2.88802 74.5859 2.55078C74.7682 2.20898 75.0234 1.91732 75.3516 1.67578C75.6797 1.42969 76.0671 1.24056 76.5137 1.1084C76.9648 0.976237 77.4593 0.910156 77.9971 0.910156C78.7308 0.910156 79.3711 1.04232 79.918 1.30664C80.4648 1.57096 80.8887 1.93327 81.1895 2.39355C81.4948 2.85384 81.6475 3.38021 81.6475 3.97266H79.6104C79.6104 3.68099 79.5488 3.42578 79.4258 3.20703C79.3073 2.98372 79.125 2.80827 78.8789 2.68066C78.6374 2.55306 78.332 2.48926 77.9629 2.48926C77.6074 2.48926 77.3112 2.54395 77.0742 2.65332C76.8372 2.75814 76.6595 2.90169 76.541 3.08398C76.4225 3.26172 76.3633 3.46224 76.3633 3.68555C76.3633 3.85417 76.4043 4.00684 76.4863 4.14355C76.5729 4.28027 76.7005 4.40788 76.8691 4.52637C77.0378 4.64486 77.2451 4.75651 77.4912 4.86133C77.7373 4.96615 78.0221 5.06868 78.3457 5.16895C78.888 5.33301 79.3643 5.51758 79.7744 5.72266C80.1891 5.92773 80.5355 6.15788 80.8135 6.41309C81.0915 6.66829 81.3011 6.95768 81.4424 7.28125C81.5837 7.60482 81.6543 7.97168 81.6543 8.38184C81.6543 8.81478 81.57 9.20215 81.4014 9.54395C81.2327 9.88574 80.9889 10.1751 80.6699 10.4121C80.3509 10.6491 79.9704 10.8291 79.5283 10.9521C79.0863 11.0752 78.5918 11.1367 78.0449 11.1367C77.5527 11.1367 77.0674 11.0729 76.5889 10.9453C76.1104 10.8132 75.6751 10.6149 75.2832 10.3506C74.8958 10.0863 74.5859 9.74902 74.3535 9.33887C74.1211 8.92871 74.0049 8.44336 74.0049 7.88281H76.0625C76.0625 8.19271 76.1104 8.45475 76.2061 8.66895C76.3018 8.88314 76.4362 9.05632 76.6094 9.18848C76.7871 9.32064 76.9967 9.41634 77.2383 9.47559C77.4844 9.53483 77.7533 9.56445 78.0449 9.56445C78.4004 9.56445 78.6921 9.51432 78.9199 9.41406C79.1523 9.3138 79.3232 9.1748 79.4326 8.99707C79.5465 8.81934 79.6035 8.61882 79.6035 8.39551ZM89.2295 1.04688V11H87.1855V1.04688H89.2295ZM103.039 5.79785V9.74219C102.884 9.92904 102.645 10.1318 102.321 10.3506C101.998 10.5648 101.581 10.7493 101.07 10.9043C100.56 11.0592 99.9424 11.1367 99.2178 11.1367C98.5752 11.1367 97.9896 11.0319 97.4609 10.8223C96.9323 10.6081 96.4766 10.2959 96.0938 9.88574C95.7155 9.47559 95.4238 8.97428 95.2188 8.38184C95.0137 7.78483 94.9111 7.10352 94.9111 6.33789V5.71582C94.9111 4.9502 95.0091 4.26888 95.2051 3.67188C95.4056 3.07487 95.6904 2.57129 96.0596 2.16113C96.4287 1.75098 96.8685 1.4388 97.3789 1.22461C97.8893 1.01042 98.4567 0.90332 99.0811 0.90332C99.9469 0.90332 100.658 1.0446 101.214 1.32715C101.77 1.60514 102.194 1.99251 102.485 2.48926C102.782 2.98145 102.964 3.54655 103.032 4.18457H101.043C100.993 3.84733 100.897 3.55339 100.756 3.30273C100.615 3.05208 100.412 2.85612 100.147 2.71484C99.8877 2.57357 99.5505 2.50293 99.1357 2.50293C98.7939 2.50293 98.4886 2.57357 98.2197 2.71484C97.9554 2.85156 97.7321 3.05436 97.5498 3.32324C97.3675 3.59212 97.2285 3.9248 97.1328 4.32129C97.0371 4.71777 96.9893 5.17806 96.9893 5.70215V6.33789C96.9893 6.85742 97.0394 7.31771 97.1396 7.71875C97.2399 8.11523 97.388 8.4502 97.584 8.72363C97.7845 8.99251 98.0306 9.19531 98.3223 9.33203C98.6139 9.46875 98.9535 9.53711 99.3408 9.53711C99.6644 9.53711 99.9333 9.50977 100.147 9.45508C100.366 9.40039 100.542 9.33431 100.674 9.25684C100.811 9.1748 100.915 9.09733 100.988 9.02441V7.26074H99.1152V5.79785H103.039ZM116.794 1.04688V11H114.743L110.744 4.32812V11H108.693V1.04688H110.744L114.75 7.72559V1.04688H116.794Z" fill="#3C46FF"/>
</svg>
